<?xml version="1.0" encoding="utf-8"?>
<!-- Generator: Adobe Illustrator 24.3.0, SVG Export Plug-In . SVG Version: 6.00 Build 0)  -->
<svg version="1.1" id="Layer_1" xmlns="http://www.w3.org/2000/svg" xmlns:xlink="http://www.w3.org/1999/xlink" x="0px" y="0px"
	 viewBox="0 0 128 48" style="enable-background:new 0 0 128 48;" xml:space="preserve">
<style type="text/css">
	.st0{fill:#FBF9F6;}
</style>
<path id="Path_88" class="st0" d="M74.9,13.4l0.8-0.5l1.6,2.8L77,15.8c-0.4-0.2-0.7-0.5-1-0.7c-0.3-0.2-0.6-0.4-0.9-0.6
	c-0.4-0.2-0.7-0.4-1,0.1c-0.3,0.4-0.3,0.8,0.1,1.2l0,0c0.4,0.4,0.9,0.8,1.3,1.1c0.6,0.4,1.3,0.8,1.9,1.3c0.5,0.2,0.8,0.7,0.9,1.2
	c0.4,1.5,0.7,2.9,1,4.4c-0.2-0.2-0.4-0.4-0.6-0.5c-1-1.3-1.9-2.6-3.3-3.6c-0.7-0.5-1.3-1.1-1.9-1.6c-0.2-0.2-0.4-0.4-0.7-0.6V20
	L72.7,20c-0.1-0.2-0.2-0.4-0.3-0.5c-0.6-1.5-1.6-2.8-2.9-3.8c-0.3-0.3-0.7-0.5-1-0.8c-0.6-0.5-1-1.2-1-1.9c-0.1-0.7-0.2-1.3-0.5-1.9
	c-0.2-0.8-0.5-1.5-0.7-2.3c-0.2-0.8-0.7-1.5-1.5-1.9c-2.5-1.3-4.3-3.3-6.4-5c-0.2-0.1-0.4-0.2-0.5-0.4c-0.2,0.4-0.4,0.8-0.7,1.3
	c-0.4,0.5-0.8,1-1.3,1.5c-0.7,0.5-1.1,1.2-1,2c0,0.2-0.2,0.4-0.4,0.6c-0.2,0.2-0.5,0.4-0.7,0.7c-0.7,1.3-1.3,2.6-1.2,4.1
	c0,0.2,0,0.3-0.1,0.4c0,0.1-0.1,0.1-0.3,0.2c-0.4-1.2-0.7-2.4-1.1-3.6c-1.2,1.4-2.4,2.7-3.5,4.1c-0.1,0.1-0.1,0.4,0.1,0.6
	c0.5,1.1,0.6,2.3,0.3,3.5c-0.1,0.4-0.3,0.8-0.5,1.1c-0.3,0.5-1,0.8-1.6,0.5c-0.2-0.1-0.3-0.2-0.4-0.3c-1-0.8-1.8-1.8-2.7-2.7
	c-1.3-1.5-1.8-1.6-3.4-0.4c-2.2,1.6-4.4,3.2-6.6,4.8c-0.8,0.5-1.6,1-2.4,1.4c-0.2,0.1-0.5,0.1-0.8,0.1c-0.2-0.1-0.1-0.5-0.1-0.8
	c0-0.2,0.1-0.4,0.1-0.6c0.1-0.8-0.2-1.1-1-0.7c-1.5,0.9-2.9,1.8-4.3,2.9c-0.7,0.5-1.4,0.8-2.2,1c-1.9,0.3-3.7,0.8-5.9,0.7
	c0.5-0.3,0.8-0.5,1.2-0.8c0.9-0.6,1.9-1.2,2.9-1.8c0.2-0.2,0.5-0.4,0.8-0.5c1.2-0.5,2.3-1.1,3.5-1.7c0.4-0.2,0.7-0.4,1-0.8
	c0.8-1.3,2.1-1.9,3.4-2.7c0.9-0.6,1.8-1.3,2.7-1.8c2-1.2,4.1-2.3,6.1-3.5c2.1-1.2,4.2-2.4,6.3-3.6c1.5-0.9,3-1.9,4.5-2.7
	c1.2-0.7,2.4-1.3,3.6-1.9c1.3-0.6,2.7-1.2,4-1.8c0.2,0.1,0.5,0.1,0.8,0.1c1.7,0.5,3.3,1.3,4.9,2.3c1.3,0.9,2.7,1.8,4,2.7
	c0.2,0.1,0.4,0.1,0.7,0.1c0.6-0.2,1.2-0.7,1.9-0.4c0.3,0.1,0.8-0.2,1.2-0.4c0.3-0.1,0.6-0.3,0.9-0.5c2.4-1.4,3.8-1.3,6.1,0.4
	c0.2,0.2,0.5,0.3,0.8,0.4c1.8,0.5,3.5,1,5.2,1.5c0.5,0.1,0.9,0.4,1.4,0.6c1.5,0.6,3,1.1,4.4,1.8c1.5,0.6,2.9,1.4,4.2,2.2
	c1.5,1.1,3.1,1.9,4.9,2.4c1.3,0.5,2.5,1.4,3.4,2.5c0.8,0.9,1.6,1.8,2.5,2.6c1,0.9,2.2,1.6,3.5,2.2c0.8,0.4,1.6,0.8,2.3,1.3
	c1,0.7,2,1.3,3.2,2.1c-0.5,0-1-0.1-1.5-0.2c-0.9-0.2-1.8-0.4-2.7-0.7c-0.6-0.2-1.2-0.4-1.7-0.7c-1.9-1.3-3.7-2.8-5.2-4.6
	c-0.8-1-1.9-1.7-3.2-2C95.9,15,94.5,14,93,13c-0.7-0.5-1.6-0.9-2.3-1.4c-0.5-0.3-0.9-0.6-1.3-1c-0.8-0.7-1.9-1-3.1-1
	c1.5,1.5,3.1,2.7,4.9,3.8c-0.2-0.1-0.4-0.1-0.7-0.2c-2.4-0.9-4.6-2.3-6.3-4.1c-0.3-0.3-0.6-0.5-1-0.7c-1.9-0.8-3.8-1.6-5.6-2.4
	c-0.6-0.2-1.2-0.7-1.8-0.9c-0.5-0.2-1.1-0.4-1.7-0.5c-0.4-0.1-0.7,0.2-0.4,0.6c0.4,0.8,0.4,1.8-0.1,2.6c-0.4,0.8-0.2,1.8,0.5,2.3
	c0.5,0.4,1,0.9,1.6,1.4c-1.2,0.2-0.2,1.2-0.9,1.6L74.9,13.4z"/>
<g>
	<path class="st0" d="M4.1,26.7c1.5,0,3.7-0.1,5.2,1.6c0.7,0.8,1.1,2.1,1.1,3.7v1.6c0,1.3-0.5,2.6-1.1,3.3c-0.5,0.5-1,0.9-1.6,1.1
		l3.3,9.7H7.8l-2.9-9.1H3.1v9.1h-3v-21H4.1z M3.1,35.9h1.7c0.7,0,1.3-0.2,1.9-0.7c0.6-0.6,0.6-1.1,0.6-1.9v-1.5
		c0-0.8-0.3-1.5-0.7-1.9c-0.6-0.6-1.3-0.5-1.9-0.5H3.1V35.9z"/>
	<path class="st0" d="M23.5,47.7l-1-4.5h-3.8l-1,4.5h-3l4.6-21h2.6l4.6,21H23.5z M20.5,32.6l-1.6,8h3.2L20.5,32.6z"/>
	<path class="st0" d="M34.6,26.7v21h-3v-21H34.6z"/>
	<path class="st0" d="M44.2,26.7l5,13.2V26.7h3v21h-3l-5-13.2v13.2h-3v-21H44.2z"/>
	<path class="st0" d="M64.7,38.9v8.8h-3v-8.9l-4.4-12.1h3.3l2.6,8.3h0.2l2.5-8.3h3.2L64.7,38.9z"/>
	<path class="st0" d="M78.3,26.7c1.3,0,3.1,0.1,4.4,1.3c1.5,1.4,1.6,3.6,1.6,4.5v9.3c0,1.4-0.2,3-1.3,4.3c-1.3,1.4-3.1,1.7-4.2,1.7
		h-4.5v-21H78.3z M77.2,44.8h1.3c0.6,0,1.4-0.1,2-0.7c0.6-0.7,0.7-1.8,0.7-2.5v-9.3c0-0.6-0.1-1.3-0.6-1.9c-0.6-0.7-1.2-0.7-1.9-0.7
		h-1.5V44.8z"/>
	<path class="st0" d="M97.3,47.7l-1-4.5h-3.8l-1,4.5h-3l4.6-21h2.6l4.6,21H97.3z M94.3,32.6l-1.6,8h3.2L94.3,32.6z"/>
	<path class="st0" d="M109.1,38.9v8.8h-3v-8.9l-4.4-12.1h3.3l2.6,8.3h0.2l2.5-8.3h3.2L109.1,38.9z"/>
	<path class="st0" d="M124.7,32c0-0.4,0-1.3-0.5-1.9c-0.3-0.3-0.7-0.7-1.6-0.7c-0.4,0-1,0.1-1.5,0.6c-0.6,0.6-0.6,1.4-0.6,2.1
		c0,0.6,0.1,1.6,0.5,2.2c0.3,0.5,0.9,0.8,1.4,0.9l1.8,0.7c0.9,0.3,2,0.7,2.7,1.8c0.8,1.1,0.9,2.3,0.9,3.6V42c0,2.1-0.6,3.8-1.4,4.7
		c-0.8,0.8-2.2,1.4-3.9,1.4c-2.1,0-3.5-0.9-4.2-1.8c-1-1.3-1-3.3-1-3.5v-0.7h3v0.6c0,0.5,0.1,1.3,0.5,1.9c0.5,0.6,1.3,0.7,1.6,0.7
		c1.1,0,1.7-0.5,1.9-0.8c0.4-0.6,0.5-1.4,0.5-2.1v-0.8c0-0.7-0.1-1.6-0.5-2.2c-0.4-0.5-1.1-0.8-1.4-0.9l-2.2-0.8
		c-1.1-0.4-2.2-0.9-2.8-2.3c-0.4-1-0.4-2-0.4-3.1v-0.6c0-1.7,0.7-3.1,1.6-3.9c1-1,2.2-1.3,3.6-1.3c3,0,5,2,5,5.4v0.7h-3V32z"/>
</g>
</svg>
