<?xml version="1.0" encoding="utf-8"?>
<!-- Generator: Adobe Illustrator 24.3.0, SVG Export Plug-In . SVG Version: 6.00 Build 0)  -->
<svg version="1.1" id="Layer_1" xmlns="http://www.w3.org/2000/svg" xmlns:xlink="http://www.w3.org/1999/xlink" x="0px" y="0px"
	 viewBox="0 0 32 32" style="enable-background:new 0 0 32 32;" xml:space="preserve">
<style type="text/css">
	.st0{fill-rule:evenodd;clip-rule:evenodd;fill:#0B3641;}
</style>
<path id="Path_110" class="st0" d="M22,2H10C8.9,2,8,2.9,8,4v24c0,1.1,0.9,2,2,2h12c1.1,0,2-0.9,2-2V4C24,2.9,23.1,2,22,2z M10,0
	C7.8,0,6,1.8,6,4v24c0,2.2,1.8,4,4,4h12c2.2,0,4-1.8,4-4V4c0-2.2-1.8-4-4-4H10z"/>
<path id="Path_111" class="st0" d="M16,28c1.1,0,2-0.9,2-2s-0.9-2-2-2s-2,0.9-2,2S14.9,28,16,28z"/>
</svg>
