<svg id="Layer_1" data-name="Layer 1" xmlns="http://www.w3.org/2000/svg" viewBox="0 0 32 32"><defs><style>.cls-1{fill:#fff;}.cls-2{fill:#c06930;}</style></defs><rect class="cls-1" width="32" height="32" rx="2"/><path class="cls-2" d="M23.41,6.4A9.8,9.8,0,0,1,25.54,7c.75.25,1.51.87,2.26,1.12,1.36.61,2.77,1.22,4.2,1.82V8.14c-1.41-.41-2.84-.83-4.33-1.24a2.61,2.61,0,0,1-1-.5C23.78,4.26,22,4.14,19,5.9a4.68,4.68,0,0,1-1.13.62c-.5.25-1.13.63-1.5.51-.88-.38-1.64.25-2.39.5a1.8,1.8,0,0,1-.88-.13C11.48,6.27,9.72,5.14,8.09,4A24.85,24.85,0,0,0,1.94,1.13,2.34,2.34,0,0,1,.94,1l-.83.37A1.9,1.9,0,0,0,0,2V6.51A3.85,3.85,0,0,1,.56,6,21,21,0,0,0,2.19,4.14c.38-.63.63-1.13.88-1.63A1.31,1.31,0,0,0,3.7,3c2.63,2.13,4.89,4.64,8,6.27a3.59,3.59,0,0,1,1.88,2.39c.26,1,.63,1.88.88,2.89a7.15,7.15,0,0,1,.63,2.38,3.23,3.23,0,0,0,1.26,2.39c.37.37.87.62,1.25,1a11.36,11.36,0,0,1,3.64,4.77,2.89,2.89,0,0,1,.38.63h.12V22.59a5.28,5.28,0,0,1,.88.75c.76.63,1.51,1.38,2.39,2a20.6,20.6,0,0,1,4.14,4.52,3.49,3.49,0,0,1,.75.63c-.37-1.88-.75-3.64-1.25-5.53a2,2,0,0,0-1.13-1.5,26,26,0,0,0-2.39-1.63,16.61,16.61,0,0,1-1.63-1.38A1,1,0,0,1,23.41,19c.37-.63.75-.38,1.25-.13l1.13.76a10.56,10.56,0,0,0,1.26.88l.37-.13-2-3.51-1,.62-.13-.37c.88-.51-.37-1.76,1.13-2-.75-.63-1.38-1.26-2-1.76a2.31,2.31,0,0,1-.63-2.89,3.33,3.33,0,0,0,.12-3.26C22.53,6.65,22.9,6.27,23.41,6.4Z"/></svg>