<?xml version="1.0" encoding="utf-8"?>
<!-- Generator: Adobe Illustrator 24.3.0, SVG Export Plug-In . SVG Version: 6.00 Build 0)  -->
<svg version="1.1" id="Layer_1" xmlns="http://www.w3.org/2000/svg" xmlns:xlink="http://www.w3.org/1999/xlink" x="0px" y="0px"
	 viewBox="0 0 32 32" style="enable-background:new 0 0 32 32;" xml:space="preserve">
<style type="text/css">
	.st0{fill-rule:evenodd;clip-rule:evenodd;fill:#0A3641;}
</style>
<path id="box-seam" class="st0" d="M16.4,2.1c-0.2-0.1-0.5-0.1-0.7,0L3.7,6.9l4.8,1.9l12.3-4.9L16.4,2.1z M23.5,5L11.2,9.9l4.8,1.9
	l12.3-4.9L23.5,5L23.5,5z M30,8.4l-13,5.2v15.8l13-5.2V8.4L30,8.4z M15,29.4V13.6L2,8.4v15.8L15,29.4z M14.9,0.3
	c0.7-0.3,1.5-0.3,2.2,0L31.4,6C31.8,6.1,32,6.5,32,6.9v17.3c0,0.8-0.5,1.6-1.3,1.9l-14.4,5.7c-0.2,0.1-0.5,0.1-0.7,0L1.3,26.1
	c-0.8-0.3-1.3-1-1.3-1.9V6.9C0,6.5,0.2,6.1,0.6,6L14.9,0.3z"/>
</svg>
